# xmcd
#
# Track frame offsets:
#	150
#	12902
#	21450
#	33425
#	41180
#	52765
#	64497
#	73515
#	84515
#	96820
#	112440
#	128807
#	138627
#	147825
#
# Disc length: 2157 seconds
# Revision: 0
# Processed by: cddbd v1.5.2PL0 Copyright (c) Steve Scherf et al.
# Submitted via: dBpowerAMP V12.0
#
DISCID=d0086b0e
DTITLE=Peter Simon - Country and Lovesongs
DYEAR=1900
DGENRE=Country
TTITLE0=San Antonio Rose
TTITLE1=Memphis
TTITLE2=Maybe Together Forever
TTITLE3=Fool
TTITLE4=Some Broken Hearts
TTITLE5=Mariann
TTITLE6=Jambalaya
TTITLE7=I'm A Cowboy
TTITLE8=I Wish That I Waould Know
TTITLE9=How Great Thou Art
TTITLE10=I Don't Wanna Go To Paris
TTITLE11=From The Bottom Of My Heart
TTITLE12=Oh, Lonesome Me
TTITLE13=The Last Dance Has Gone By
EXTD=
EXTT0=
EXTT1=
EXTT2=
EXTT3=
EXTT4=
EXTT5=
EXTT6=
EXTT7=
EXTT8=
EXTT9=
EXTT10=
EXTT11=
EXTT12=
EXTT13=
PLAYORDER=
